<?xml version="1.0" encoding="UTF-8"?>
<svg version="1.1" xmlns="http://www.w3.org/2000/svg" width="1024" height="1024">
<path d="M0 0 C5.04789175 3.5759365 9.03264433 7.55984794 12 13 C12 13.99 12 14.98 12 16 C12.92820557 16.11480713 13.85641113 16.22961426 14.81274414 16.34790039 C59.96978192 21.99769471 104.24994481 32.44332698 145.63916016 51.89160156 C148.24675075 53.11584782 150.86381988 54.31868214 153.48046875 55.5234375 C166.72612676 61.68103569 179.49575845 68.44969405 192 76 C192.73379883 76.44279297 193.46759766 76.88558594 194.22363281 77.34179688 C206.80013415 85.01813775 218.38798846 93.95471802 230 103 C230.78793945 103.60755127 231.57587891 104.21510254 232.38769531 104.84106445 C236.93612644 108.35310169 241.39811323 111.93466885 245.75 115.6875 C246.34288818 116.19804932 246.93577637 116.70859863 247.54663086 117.23461914 C261.11466777 128.9844635 274.40824643 141.26911983 286 155 C287.31011068 156.5020873 288.62259577 158.00210711 289.9375 159.5 C290.95833333 160.66666667 291.97916667 161.83333333 293 163 C293.65871094 162.84273437 294.31742188 162.68546875 294.99609375 162.5234375 C307.39656757 160.36262672 318.74348553 161.43582721 329.3359375 168.57421875 C334.34056746 172.56489951 337.36293419 177.21480912 340 183 C340.36609375 183.74507812 340.7321875 184.49015625 341.109375 185.2578125 C342.29834383 188.91858494 342.38295681 192.43910905 342.375 196.25 C342.37411377 197.00635742 342.37322754 197.76271484 342.37231445 198.54199219 C342.2188986 205.78446658 340.24899549 210.7764398 336.125 216.6875 C334.6756765 219.02231135 334.6756765 219.02231135 335.76171875 221.80737305 C336.91862387 224.79019012 338.20453429 227.56191439 339.6875 230.39453125 C340.48075684 231.93185913 340.48075684 231.93185913 341.29003906 233.50024414 C341.85432617 234.59328857 342.41861328 235.68633301 343 236.8125 C349.48141749 249.58792266 354.95626147 262.5944968 360 276 C360.38639648 277.00853027 360.77279297 278.01706055 361.17089844 279.05615234 C367.54893043 295.74970213 372.60093231 312.68403724 377 330 C377.24202148 330.93859863 377.48404297 331.87719727 377.73339844 332.84423828 C381.25102122 346.74685463 383.27708671 360.88345405 385.3125 375.0625 C385.51555756 376.47370621 385.51555756 376.47370621 385.72271729 377.91342163 C386.10903322 380.61984996 386.48790051 383.32719144 386.86328125 386.03515625 C386.97862717 386.84987396 387.09397308 387.66459167 387.21281433 388.5039978 C387.78361527 392.70590703 388.12385369 396.74683889 388 401 C388.969375 401.185625 389.93875 401.37125 390.9375 401.5625 C400.10091509 404.2467327 406.4952423 411.92637609 411 420 C414.25165856 427.76483014 414.29367729 437.67828206 412.3125 445.828125 C411.37736487 448.05686372 410.3224575 449.97911964 409 452 C408.38125 453.02287109 408.38125 453.02287109 407.75 454.06640625 C403.65909399 460.19114337 397.47227318 465.89903706 390.19140625 467.69140625 C389.46824219 467.79324219 388.74507812 467.89507813 388 468 C387.96132812 469.37091797 387.96132812 469.37091797 387.921875 470.76953125 C385.73970055 527.89547865 366.22717658 589.03856368 337.1628418 637.96118164 C336.73011963 638.7061792 336.29739746 639.45117676 335.8515625 640.21875 C335.27656006 641.1768457 335.27656006 641.1768457 334.68994141 642.15429688 C333.81024764 644.50761779 334.15817978 645.66753763 335 648 C335.77080177 649.50131773 336.58636781 650.98022025 337.4375 652.4375 C342.70845519 661.48466189 343.79715946 671.59692836 341.3125 681.83203125 C340.37641594 684.05913124 339.32289284 685.98063086 338 688 C337.36384766 689.04027344 337.36384766 689.04027344 336.71484375 690.1015625 C332.17654958 696.85211707 325.28560545 701.88802439 317.56640625 704.5390625 C310.22743809 705.85717246 301.61626197 705.97012044 294.41796875 704.0390625 C291.12420386 703.67316501 291.12420386 703.67316501 289.29370117 705.17382812 C287.36400607 707.07020124 285.62096922 709.0581121 283.875 711.125 C282.4761815 712.69325568 281.07364638 714.25820192 279.66796875 715.8203125 C278.9207959 716.65852539 278.17362305 717.49673828 277.40380859 718.36035156 C273.13805504 723.04462207 268.66502771 727.51926777 264.1875 732 C263.34106934 732.85867676 262.49463867 733.71735352 261.62255859 734.60205078 C256.5411865 739.69525148 251.26775737 744.35091898 245.65112305 748.84521484 C243.1676159 750.86376481 240.78488271 752.95269031 238.4140625 755.1015625 C233.92704492 759.13011094 229.21358486 762.78051406 224.375 766.375 C223.50182129 767.0256543 222.62864258 767.67630859 221.72900391 768.34667969 C214.31767545 773.83222988 206.78723928 779.06389189 199 784 C198.32855957 784.42700195 197.65711914 784.85400391 196.96533203 785.29394531 C162.5849013 807.03043161 124.3802539 825.30404048 85 836 C83.90059082 836.30212402 82.80118164 836.60424805 81.66845703 836.91552734 C65.84448918 841.20758785 49.97814335 844.74969512 33.8125 847.5 C32.67131714 847.69480957 32.67131714 847.69480957 31.50708008 847.89355469 C18.10199142 850.15953165 18.10199142 850.15953165 13 850 C12.896875 850.73347656 12.79375 851.46695313 12.6875 852.22265625 C11.08707957 858.68799107 5.90145334 863.66456623 0.5625 867.375 C-9.61198268 873.48988108 -20.40789024 874.95225087 -32.04296875 872.30859375 C-42.09635377 868.58338597 -48.57941491 862.12857952 -54 853 C-54.33 852.01 -54.66 851.02 -55 850 C-55.7528125 849.90501221 -56.505625 849.81002441 -57.28125 849.7121582 C-138.12739932 839.37950031 -212.39331721 809.21163638 -276 758 C-276.97582031 757.21882812 -277.95164062 756.43765625 -278.95703125 755.6328125 C-284.3322749 751.28751064 -289.53115515 746.79062679 -294.64453125 742.140625 C-296.87197672 740.11634619 -299.1153172 738.11318672 -301.375 736.125 C-301.98085938 735.59132813 -302.58671875 735.05765625 -303.2109375 734.5078125 C-305.02855765 732.93210444 -305.02855765 732.93210444 -307.2265625 731.4296875 C-307.81179688 730.95789063 -308.39703125 730.48609375 -309 730 C-309 729.34 -309 728.68 -309 728 C-309.66 728 -310.32 728 -311 728 C-312.3046875 726.671875 -312.3046875 726.671875 -313.875 724.75 C-318.90215969 718.82324331 -324.47435643 713.45550141 -330 708 C-330.69738281 707.20078125 -331.39476562 706.4015625 -332.11328125 705.578125 C-333.04720703 704.79695312 -333.04720703 704.79695312 -334 704 C-335.85907823 704.18811653 -335.85907823 704.18811653 -338 705 C-350.66836624 705.80329557 -360.83800316 705.04782303 -371.11328125 696.8359375 C-378.01285428 690.12206726 -382.1802561 682.54842833 -382.37988281 672.88427734 C-382.37827148 672.15934082 -382.37666016 671.4344043 -382.375 670.6875 C-382.37338867 669.9342041 -382.37177734 669.1809082 -382.37011719 668.40478516 C-382.23997567 662.49865692 -381.12921501 658.06383105 -378 653 C-377.6184375 652.31035156 -377.236875 651.62070312 -376.84375 650.91015625 C-375.92659581 649.25600315 -374.96802835 647.62490473 -374 646 C-374.37439209 645.45690186 -374.74878418 644.91380371 -375.13452148 644.35424805 C-391.85534646 619.74340731 -403.51489949 590.39728141 -412 562 C-412.49209961 560.37288086 -412.49209961 560.37288086 -412.99414062 558.71289062 C-421.57678903 530.01107023 -430 498.15895747 -430 468 C-430.78375 467.95875 -431.5675 467.9175 -432.375 467.875 C-440.53197881 465.90607408 -447.35550849 460.9594575 -452 454 C-457.55439025 444.32000156 -458.60215159 433.90871006 -456.38671875 422.97265625 C-452.82056817 413.0282804 -445.65033383 406.81139026 -436.515625 401.99609375 C-434 401 -434 401 -430 401 C-430.04125 399.84242188 -430.0825 398.68484375 -430.125 397.4921875 C-430.11381 390.30541302 -429.01987563 383.22381011 -428 376.125 C-427.89151733 375.36522858 -427.78303467 374.60545715 -427.67126465 373.82266235 C-420.0788833 321.40540093 -404.21221529 267.86406921 -376.93359375 222.234375 C-375.81924076 219.56738793 -375.94754428 218.64964984 -377 216 C-377.63151444 214.62908741 -378.29935087 213.27440037 -379 211.9375 C-383.13522815 204.01671373 -383.40904022 193.85355564 -381.31640625 185.16015625 C-380.3759313 182.93969879 -379.32055777 181.01580469 -378 179 C-377.57589844 178.30648437 -377.15179688 177.61296875 -376.71484375 176.8984375 C-371.66732553 169.3904299 -363.82648168 164.08371281 -355 162 C-352.43259213 161.95389587 -349.94542283 162.13443194 -347.38720703 162.34765625 C-338.36682956 163.22081052 -338.36682956 163.22081052 -330.43359375 159.62109375 C-328.07065159 157.20920687 -326.12176761 154.54927074 -324.234375 151.74829102 C-319.25648464 144.69792059 -312.83376729 138.64017499 -306.75 132.5625 C-305.90808105 131.72138672 -305.06616211 130.88027344 -304.19873047 130.01367188 C-299.18221768 125.0464448 -294.14335949 120.34915135 -288.5703125 116.01171875 C-286.17616835 114.13788252 -283.87700277 112.18073992 -281.58398438 110.18530273 C-227.75854371 63.53603441 -155.68072901 30.44397233 -85.2734375 20.42578125 C-83.36589916 20.14441978 -81.45842875 19.86259739 -79.55102539 19.58032227 C-75.78146932 19.02362092 -72.01008721 18.52738557 -68.22827148 18.06225586 C-59.09822909 17.05349007 -59.09822909 17.05349007 -51.34643555 12.65576172 C-49.46823049 10.06439368 -49.46823049 10.06439368 -48.20703125 7.38525391 C-45.20204175 1.44699593 -38.0809726 -2.09013404 -32.02734375 -4.30078125 C-20.979014 -6.85258902 -9.80947256 -5.88864266 0 0 Z M19 35 C20.39462427 38.19134185 22.00433777 40.19085045 24.5625 42.5390625 C25.27229004 43.19712891 25.98208008 43.85519531 26.71337891 44.53320312 C27.46796387 45.22349609 28.22254883 45.91378906 29 46.625 C30.55048735 48.06401865 32.09997063 49.50411992 33.6484375 50.9453125 C34.39834961 51.64172852 35.14826172 52.33814453 35.92089844 53.05566406 C42.66946075 59.36679021 49.00601424 65.97090826 55 73 C55.84820313 73.9590625 56.69640625 74.918125 57.5703125 75.90625 C70.24827917 90.31283363 81.74149742 105.78231423 92 122 C92.69867187 123.1034375 93.39734375 124.206875 94.1171875 125.34375 C111.06122391 152.65786442 125.15505668 181.72583011 136.15893555 211.89648438 C136.82052363 213.95187298 136.82052363 213.95187298 138 215 C139.93505023 215.24900646 141.87325934 215.47356242 143.8125 215.6875 C152.48982535 216.98433104 160.70443121 219.87713432 166.5625 226.6875 C167.37648911 227.79056936 168.18907324 228.89467739 169 230 C169.99150559 231.00842286 170.9905399 232.00955045 172 233 C205.61731712 223.54682855 238.87661468 213.84646567 271 200 C271.02578125 199.23816406 271.0515625 198.47632813 271.078125 197.69140625 C271.46999194 190.55764668 272.78363773 185.3234896 276 179 C276.68085913 177.33908066 277.35093437 175.67359972 278 174 C269.4810581 164.81108902 260.85017955 155.74617434 252 146.875 C251.22422607 146.09471436 250.44845215 145.31442871 249.64916992 144.51049805 C244.92815347 139.80164525 240.06909826 135.33030415 235 131 C233.97892203 130.11095797 232.95807062 129.22165564 231.9375 128.33203125 C177.72045348 81.82937832 92.52930693 35 19 35 Z M-179 68 C-180.87743623 68.85974183 -182.75504806 69.71910026 -184.6328125 70.578125 C-197.83850646 76.69019749 -210.53151426 83.50287973 -223 91 C-223.80920898 91.48581543 -224.61841797 91.97163086 -225.45214844 92.47216797 C-242.69508503 102.90648039 -258.85592534 114.70541722 -274 128 C-274.7321875 128.63292969 -275.464375 129.26585937 -276.21875 129.91796875 C-278.15764201 131.59911123 -280.07932181 133.29808719 -282 135 C-282.70044434 135.61560791 -283.40088867 136.23121582 -284.12255859 136.86547852 C-290.5850187 142.60261553 -296.74778433 148.59292108 -302.84350586 154.71313477 C-304.4563715 156.33143509 -306.07461525 157.94422257 -307.69335938 159.55664062 C-308.73209218 160.59603313 -309.77051533 161.63573519 -310.80859375 162.67578125 C-312.19776001 164.0666394 -312.19776001 164.0666394 -313.61499023 165.4855957 C-315.61006296 167.58890761 -317.4541496 169.54934228 -319 172 C-318.49113354 174.4091705 -318.49113354 174.4091705 -317 177 C-316.31034567 178.37392073 -315.62298313 179.74899341 -314.9375 181.125 C-314.59589844 181.78757812 -314.25429688 182.45015625 -313.90234375 183.1328125 C-312.03782749 186.99098899 -311.7309248 190.45379928 -311.4375 194.6875 C-311.35371094 195.86699219 -311.26992188 197.04648437 -311.18359375 198.26171875 C-311.09271484 199.61716797 -311.09271484 199.61716797 -311 201 C-302.82475297 204.80902571 -294.41486316 207.88437396 -285.9375 210.9375 C-285.16942017 211.21502106 -284.40134033 211.49254211 -283.60998535 211.7784729 C-270.56576587 216.48118682 -257.43773674 220.90509877 -244.25 225.1875 C-243.39042694 225.46721649 -242.53085388 225.74693298 -241.64523315 226.03512573 C-239.18662637 226.83338618 -236.72654318 227.62686566 -234.265625 228.41796875 C-233.18647575 228.76713348 -233.18647575 228.76713348 -232.08552551 229.12335205 C-222.68219517 232.52864097 -222.68219517 232.52864097 -213 233 C-211.22749923 231.24197723 -211.22749923 231.24197723 -209.8125 228.875 C-205.02649167 222.2393771 -198.0198299 217.80036998 -190 216 C-188.10480372 215.79972251 -186.20731931 215.62049769 -184.30859375 215.45703125 C-183.31529053 215.37042236 -182.3219873 215.28381348 -181.29858398 215.19458008 C-180.54005127 215.13036865 -179.78151855 215.06615723 -179 215 C-178.55011719 213.7625 -178.10023438 212.525 -177.63671875 211.25 C-170.3871287 191.61121382 -161.72711188 172.53757919 -152 154 C-151.6090918 153.25395508 -151.21818359 152.50791016 -150.81542969 151.73925781 C-137.92407682 127.32457326 -122.89291196 103.09299045 -105 82 C-104.58105469 81.49903809 -104.16210938 80.99807617 -103.73046875 80.48193359 C-91.67885959 66.07516842 -79.09176114 51.51004196 -64.56640625 39.54296875 C-62.7404064 37.97779021 -62.7404064 37.97779021 -62 35 C-99.95591307 35 -145.05252777 52.02947161 -179 68 Z M-50 51 C-51.16015625 52.06927734 -51.16015625 52.06927734 -52.34375 53.16015625 C-53.39560993 54.12784706 -54.44771006 55.09527682 -55.5 56.0625 C-56.04954346 56.56765137 -56.59908691 57.07280273 -57.1652832 57.59326172 C-60.13574311 60.31614704 -63.12898321 63.00075537 -66.1875 65.625 C-73.36184584 71.86162014 -79.90496023 78.71370958 -86 86 C-86.45358887 86.53979492 -86.90717773 87.07958984 -87.37451172 87.63574219 C-95.811438 97.71475479 -103.62985109 108.11755668 -111 119 C-111.38575195 119.56831543 -111.77150391 120.13663086 -112.16894531 120.72216797 C-132.04389997 150.24939881 -153.01592492 185.1556867 -162 220 C-161.48050781 220.40089844 -160.96101563 220.80179688 -160.42578125 221.21484375 C-155.10003907 225.55616039 -151.89723008 229.79333231 -149 236 C-148.5875 236.845625 -148.175 237.69125 -147.75 238.5625 C-146.69179056 242.00168067 -146.41685068 245.42699419 -146 249 C-143.87801053 251.12198947 -139.58503869 250.89368207 -136.65625 251.3046875 C-135.79219543 251.42847275 -134.92814087 251.552258 -134.03790283 251.67979431 C-131.19275001 252.084243 -128.3465542 252.48054113 -125.5 252.875 C-124.53259888 253.01005951 -123.56519775 253.14511902 -122.56848145 253.28427124 C-104.75049912 255.75931866 -86.94022672 257.66856548 -69 259 C-67.73591309 259.09571289 -66.47182617 259.19142578 -65.16943359 259.29003906 C-57.47697061 259.84235849 -49.83674637 260.16091719 -42.125 260.125 C-41.10849365 260.1237915 -40.0919873 260.12258301 -39.04467773 260.12133789 C-31.98084761 260.08521572 -24.95489852 259.82306945 -17.91259766 259.26806641 C-16.27731535 259.14417515 -14.63860968 259.0667502 -13 259 C-12.67 259.33 -12.34 259.66 -12 260 C26.32744552 262.26738017 66.51858151 256.32485101 104 249 C104.12334717 248.25596924 104.24669434 247.51193848 104.3737793 246.74536133 C104.54304932 245.7633374 104.71231934 244.78131348 104.88671875 243.76953125 C105.1336145 242.31317261 105.1336145 242.31317261 105.38549805 240.82739258 C107.31302121 231.9586418 112.81860303 225.33475204 120 220 C118.07213934 212.01132941 115.37170086 204.67297297 112 197.1875 C111.5150708 196.10218994 111.0301416 195.01687988 110.53051758 193.89868164 C101.82134 174.57919562 91.98838019 156.1195175 81 138 C80.41283203 137.02933594 79.82566406 136.05867188 79.22070312 135.05859375 C72.02912685 123.25010498 64.4134229 112.19599148 55.42822266 101.68408203 C53.36059703 99.246051 51.37317312 96.74505453 49.375 94.25 C40.50863714 83.46022921 30.71503355 73.57610508 20.8125 63.75 C19.65796499 62.60049954 18.50366702 61.45076096 17.34960938 60.30078125 C14.56911591 57.53111674 11.78548804 54.76464098 9 52 C6.04632209 53.44097837 3.43515016 55.03954314 0.75 56.9375 C-8.80058179 63.23780315 -17.76507945 64.20086907 -29 63 C-36.12905127 61.38017705 -41.40058135 57.52608897 -47 53 C-47.99 52.34 -48.98 51.68 -50 51 Z M276 216 C274.83170654 216.44690186 273.66341309 216.89380371 272.4597168 217.35424805 C250.60818088 225.68661852 228.73365407 233.69854427 206.3125 240.375 C205.41252289 240.64299408 204.51254578 240.91098816 203.58529663 241.18710327 C195.02988104 243.72349239 186.46474408 246.20825435 177.82495117 248.44384766 C175.999373 248.84387229 175.999373 248.84387229 175 250 C174.7012973 251.68279043 174.43636398 253.37162045 174.1875 255.0625 C172.76571857 263.13320046 169.6405601 269.0908418 164 275 C162.01825085 276.36031176 160.02031235 277.69764989 158 279 C158.235979 279.88631104 158.47195801 280.77262207 158.71508789 281.68579102 C169.00846824 320.69189116 175.63632364 359.79417436 179 400 C180.051875 400.43699219 180.051875 400.43699219 181.125 400.8828125 C193.3672118 406.1722464 200.01661874 412.03323747 206 424 C251.54 424 297.08 424 344 424 C346.475 419.545 346.475 419.545 349 415 C354.05722924 407.47899241 360.95688405 404.62491116 369 401 C369.21844632 392.4223411 368.63570291 384.17908633 367.4375 375.6875 C367.17404785 373.8171106 367.17404785 373.8171106 366.90527344 371.90893555 C363.56993071 349.42620307 358.01826704 327.51184392 350.94677734 305.91503906 C350.06785993 303.2089344 349.22544536 300.49459017 348.39453125 297.7734375 C342.16552863 277.74831887 333.47488903 258.34391419 323.9375 239.6875 C323.49696289 238.81029297 323.05642578 237.93308594 322.60253906 237.02929688 C322.18584961 236.23974609 321.76916016 235.45019531 321.33984375 234.63671875 C320.98269287 233.95311279 320.62554199 233.26950684 320.25756836 232.56518555 C318.62527723 230.53361528 317.55350988 230.33012062 315 230 C313.03677094 230.02244857 311.07326739 230.04881293 309.11108398 230.11669922 C297.24916107 230.49228145 289.06027644 227.91290518 280 220 C278.66218906 218.67115936 277.32834317 217.33830489 276 216 Z M-321.625 221.25 C-328.04370456 227.01516373 -334.52608446 230.14810416 -343.203125 230.09765625 C-344.1828125 230.09443359 -345.1625 230.09121094 -346.171875 230.08789062 C-347.18765625 230.07951172 -348.2034375 230.07113281 -349.25 230.0625 C-350.796875 230.05573242 -350.796875 230.05573242 -352.375 230.04882812 C-354.91672573 230.03706088 -357.45833319 230.02062011 -360 230 C-390.47434007 282.04192857 -406.52848242 341.22213732 -412 401 C-411.32235596 401.32830811 -410.64471191 401.65661621 -409.9465332 401.99487305 C-409.05281006 402.43355713 -408.15908691 402.87224121 -407.23828125 403.32421875 C-405.91244019 403.97136841 -405.91244019 403.97136841 -404.55981445 404.6315918 C-396.23864906 409.07986381 -392.09472069 415.76778274 -388 424 C-375.93051404 424.13302242 -363.8610034 424.26352765 -351.79145908 424.39115143 C-346.18200445 424.45053802 -340.57256024 424.51066927 -334.96313477 424.57275391 C-306.30759481 424.88926863 -277.65733907 425.07719908 -249 425 C-248.6695166 424.32163086 -248.3390332 423.64326172 -247.99853516 422.94433594 C-247.33797119 421.60290527 -247.33797119 421.60290527 -246.6640625 420.234375 C-246.2304541 419.34975586 -245.7968457 418.46513672 -245.35009766 417.55371094 C-240.25742539 407.92091674 -231.84751107 403.88931846 -222 400 C-221.87995605 398.78981201 -221.75991211 397.57962402 -221.63623047 396.33276367 C-213.64543425 316.47846097 -213.64543425 316.47846097 -202.4597168 284.25610352 C-201.89582191 281.48873618 -202.14580727 279.68424856 -203 277 C-204.43813028 275.79066318 -205.88218246 274.58645668 -207.375 273.4453125 C-214.26194036 267.31990881 -215.96494242 258.70876033 -217 250 C-217.76626709 249.81526123 -218.53253418 249.63052246 -219.32202148 249.44018555 C-248.64355207 242.29912456 -276.85182262 232.75482174 -305.05761719 222.0637207 C-305.77645584 221.79221191 -306.49529449 221.52070313 -307.23591614 221.2409668 C-308.584955 220.73072849 -309.93290967 220.21761131 -311.27958679 219.70117188 C-316.44559435 217.74726694 -317.61950387 217.45195984 -321.625 221.25 Z M99.33203125 266.953125 C69.77656411 272.08593387 40.15148586 274.92659532 10.1875 276.25 C9.26040222 276.29119965 8.33330444 276.33239929 7.37811279 276.37484741 C-12.33551291 277.22437201 -31.91585887 277.08836987 -51.625 276.1875 C-53.09116257 276.1212291 -53.09116257 276.1212291 -54.58694458 276.05361938 C-81.14412528 274.83267698 -107.39899347 272.27084003 -133.73022461 268.62573242 C-134.51201584 268.51828705 -135.29380707 268.41084167 -136.09928894 268.30014038 C-137.56067659 268.09849006 -139.02165996 267.8938779 -140.48213196 267.68569946 C-144.00486969 267.19902235 -147.44427466 266.73419361 -151 267 C-152.54652825 268.53043776 -152.54652825 268.53043776 -153.6875 270.625 C-158.11645382 277.07959936 -165.38754669 281.29108191 -173 283 C-174.89519628 283.20027749 -176.79268069 283.37950231 -178.69140625 283.54296875 C-180.18136108 283.67288208 -180.18136108 283.67288208 -181.70141602 283.80541992 C-182.45994873 283.86963135 -183.21848145 283.93384277 -184 284 C-191.02640102 308.93400825 -196.57071772 333.81246165 -200.3125 359.4375 C-200.44173859 360.30511963 -200.57097717 361.17273926 -200.70413208 362.06665039 C-202.61801954 375.03713717 -203.57937314 387.89776256 -204 401 C-203.14043701 401.46510986 -202.28087402 401.93021973 -201.39526367 402.40942383 C-192.88193256 407.06901197 -187.96698379 411.27565898 -183.33984375 419.7265625 C-182.89890381 420.52916504 -182.45796387 421.33176758 -182.00366211 422.15869141 C-181.67245361 422.76632324 -181.34124512 423.37395508 -181 424 C-161.45974273 424.15375143 -141.91945022 424.30178864 -122.37909794 424.4429636 C-113.30682681 424.5086431 -104.23457704 424.576215 -95.16235352 424.64819336 C-87.25793791 424.71090167 -79.35350529 424.77010885 -71.44903177 424.82505554 C-67.26103543 424.8542915 -63.07306917 424.88531871 -58.88511848 424.92053413 C-54.94787579 424.95358621 -51.01062771 424.98197719 -47.0733242 425.00670624 C-45.62404202 425.01664636 -44.17477064 425.02832754 -42.72551727 425.04183006 C-40.75532671 425.05993245 -38.78507774 425.07131358 -36.81483459 425.08229065 C-35.70960481 425.09058679 -34.60437502 425.09888292 -33.46565342 425.10743046 C-31.05537688 425.28059573 -31.05537688 425.28059573 -30 424 C-27.73287193 423.78883154 -25.46066406 423.63109906 -23.1875 423.5 C-17.52075182 423.19743611 -17.52075182 423.19743611 -12 422 C-12 422.66 -12 423.32 -12 424 C37.5 424 87 424 138 424 C139.65 421.03 141.3 418.06 143 415 C146.67347491 409.67346138 149.96944441 407.29958197 155.71875 404.2890625 C156.32299805 403.97042236 156.92724609 403.65178223 157.54980469 403.32348633 C159.03041693 402.5436777 160.51483495 401.77110239 162 401 C158.76192403 361.13093762 151.82946464 322.7607361 142 284 C140.96133789 283.908396 139.92267578 283.81679199 138.85253906 283.72241211 C128.4660495 282.7378681 119.63108241 280.47444928 112.4375 272.3125 C110.84991808 270.26324737 109.4404928 268.16073921 108 266 C104.96183701 266 102.32138436 266.41824976 99.33203125 266.953125 Z M207 441 C205.68 444.3 204.36 447.6 203 451 C197.43568155 460.47694139 189.24656451 465.64657889 179 469 C178.82259277 470.42469604 178.82259277 470.42469604 178.64160156 471.87817383 C178.19293737 475.47792473 177.74209623 479.07740065 177.29077148 482.67681885 C177.10280065 484.17865212 176.91542248 485.68055974 176.72875977 487.18255615 C172.94014356 517.66630488 167.11383837 547.31716159 159.66088867 577.11694336 C158.98506495 580.06515256 158.46722581 583.01225037 158 586 C158.51949219 586.35191406 159.03898438 586.70382812 159.57421875 587.06640625 C168.33463444 593.26832716 171.29926008 598.56002029 173.51953125 609.109375 C175.61718596 613.20505965 178.85898941 613.65382166 183 615 C183.64381119 615.21129547 184.28762238 615.42259094 184.95094299 615.64028931 C186.92883008 616.27477254 188.91236049 616.88775456 190.8984375 617.49609375 C192.42859014 617.97054967 193.95861396 618.44542117 195.48852539 618.9206543 C196.28469269 619.16745941 197.08085999 619.41426453 197.90115356 619.66854858 C211.69691696 623.95671767 225.43444396 628.39110498 239.0625 633.1875 C239.76528076 633.43469788 240.46806152 633.68189575 241.19213867 633.93658447 C250.94300566 637.38470977 260.53767927 641.118332 269.91430664 645.4987793 C270.67219482 645.84593994 271.43008301 646.19310059 272.2109375 646.55078125 C272.85337402 646.85669189 273.49581055 647.16260254 274.15771484 647.4777832 C276.46787727 648.13262516 277.7599948 647.80033519 280 647 C281.83513342 645.73439258 281.83513342 645.73439258 283.625 644.1875 C289.42045045 639.78803397 294.83936739 636.73424247 302.2890625 637.1328125 C310.4968021 637.80642467 310.4968021 637.80642467 317.66113281 634.54345703 C320.80435015 630.50202539 322.90598806 625.93695367 324.96923828 621.27490234 C326.19175419 618.57679641 327.60801005 616.03276874 329.06811523 613.45825195 C334.38970845 603.98181798 338.7237904 593.9791527 343 584 C343.3079248 583.28569824 343.61584961 582.57139648 343.93310547 581.83544922 C358.51167693 547.56401658 370.24068619 505.34253349 369 468 C368.05898438 467.57589844 367.11796875 467.15179687 366.1484375 466.71484375 C353.27739014 460.73099626 348.25348581 454.13371451 343 441 C298.12 441 253.24 441 207 441 Z M-387 442 C-388.98 445.96 -390.96 449.92 -393 454 C-397.28145716 460.21830683 -401.72750763 462.71543535 -408.5859375 465.8359375 C-411.39996489 467.88421537 -411.39996489 467.88421537 -411.48046875 471.74609375 C-411.36585041 473.50096459 -411.19841615 475.25261909 -411 477 C-410.8752832 478.13276367 -410.75056641 479.26552734 -410.62207031 480.43261719 C-410.11968277 484.52796344 -409.5469878 488.60697604 -408.9375 492.6875 C-408.77086349 493.80671844 -408.77086349 493.80671844 -408.6008606 494.94854736 C-402.50930418 535.35839166 -390.09547881 573.78655134 -372 610.375 C-371.43039551 611.52871094 -370.86079102 612.68242188 -370.27392578 613.87109375 C-368.56226877 617.27389719 -366.79231038 620.63905492 -365 624 C-364.69082642 624.61049194 -364.38165283 625.22098389 -364.06311035 625.84997559 C-360.70091418 633.11764315 -360.70091418 633.11764315 -354.77929688 637.93896484 C-352.31621748 638.10509169 -350.18536136 637.89329587 -347.75 637.5 C-346.07563458 637.36294883 -344.39964995 637.24440467 -342.72265625 637.14453125 C-341.51246826 637.07032959 -341.51246826 637.07032959 -340.27783203 636.99462891 C-333.61217042 637.01034644 -327.44313254 640.47583551 -322.625 644.875 C-320.19689998 647.33831001 -320.19689998 647.33831001 -317.19604492 646.78320312 C-313.99174323 645.99797665 -311.23991295 644.9562918 -308.23828125 643.59375 C-307.13460205 643.10197266 -306.03092285 642.61019531 -304.89379883 642.10351562 C-303.71197021 641.57435547 -302.5301416 641.04519531 -301.3125 640.5 C-292.09992285 636.45909314 -282.86472217 632.67938688 -273.3125 629.5 C-272.25780518 629.14873047 -271.20311035 628.79746094 -270.11645508 628.43554688 C-263.82267866 626.40145219 -257.49945861 624.56990528 -251.11308289 622.85290527 C-247.34280524 621.83797254 -243.57939584 620.79849051 -239.8152771 619.76098633 C-237.04035711 619.01090877 -234.25654813 618.30492243 -231.4699707 617.59960938 C-229.75028259 617.13085072 -228.03110019 616.66023173 -226.3125 616.1875 C-225.11907234 615.90634338 -225.11907234 615.90634338 -223.90153503 615.61950684 C-221.6230381 614.96532562 -219.93064468 614.38068805 -218 613 C-216.79651824 610.77398139 -216.13607491 608.72278504 -215.54711914 606.265625 C-213.756718 598.8515587 -209.2090817 592.49851355 -203.24682617 587.85644531 C-200.55779878 585.0925029 -200.55779878 585.0925029 -201.25512695 581.10058594 C-201.63668103 579.55427056 -202.05011041 578.01561015 -202.48828125 576.484375 C-202.70118301 575.64917328 -202.91408478 574.81397156 -203.13343811 573.95346069 C-203.59473592 572.15314308 -204.06878916 570.35605589 -204.55413818 568.56207275 C-205.83842237 563.79983328 -207.01904236 559.01163161 -208.21484375 554.2265625 C-208.57905426 552.78523453 -208.57905426 552.78523453 -208.95062256 551.31478882 C-214.38173983 529.70000909 -217.55040129 507.80847117 -219.70849609 485.64697266 C-219.78182159 484.91279617 -219.85514709 484.17861969 -219.93069458 483.42219543 C-220.12722988 481.43614323 -220.31444494 479.44917492 -220.50097656 477.4621582 C-220.9891699 474.0751378 -221.69983689 471.16321967 -223 468 C-225.08800903 466.64181222 -225.08800903 466.64181222 -227.625 466 C-236.80095102 462.7606513 -242.37033242 457.53552282 -247 449 C-247.99 446.69 -248.98 444.38 -250 442 C-295.21 442 -340.42 442 -387 442 Z M-51.94335938 441.09179688 C-53.34353621 441.10167319 -54.74371321 441.1115246 -56.14389038 441.12135315 C-59.92428961 441.14795959 -63.70468631 441.17491216 -67.48508263 441.20192909 C-71.44354486 441.23015899 -75.40200936 441.25806747 -79.36047363 441.28601074 C-86.84714431 441.33890852 -94.33381292 441.39209339 -101.82048082 441.4453826 C-110.34770935 441.50606432 -118.87494014 441.56642418 -127.40217113 441.62675762 C-144.9347833 441.75081479 -162.46739258 441.87527412 -180 442 C-180.4026709 442.82201904 -180.8053418 443.64403809 -181.22021484 444.4909668 C-182.01999756 446.10998901 -182.01999756 446.10998901 -182.8359375 447.76171875 C-183.3623584 448.83123779 -183.8887793 449.90075684 -184.43115234 451.00268555 C-188.98047229 459.69425121 -195.44707381 463.44674318 -204 468 C-200.24356865 526.23692634 -200.24356865 526.23692634 -183 581 C-181.07326062 581.32261683 -179.13143567 581.55629823 -177.1875 581.75 C-169.41949487 582.85849689 -161.40402161 585.08294866 -156.08203125 591.20703125 C-155.53933594 591.94308594 -154.99664062 592.67914062 -154.4375 593.4375 C-152.97275386 595.43342645 -152.97275386 595.43342645 -151 597 C-148.6721019 597.28388093 -148.6721019 597.28388093 -146.12890625 596.83984375 C-144.65949585 596.6538562 -144.65949585 596.6538562 -143.16040039 596.46411133 C-142.11746826 596.31095459 -141.07453613 596.15779785 -140 596 C-138.44430298 595.79056763 -138.44430298 595.79056763 -136.85717773 595.5769043 C-134.61953464 595.2724027 -132.38291315 594.96032593 -130.1472168 594.6418457 C-104.53585541 591.01246944 -78.87313944 588.81079221 -53.00854492 588.2902832 C-47.37396763 588.17411004 -41.79412234 588.02501067 -36.18359375 587.4765625 C-18.96823568 585.94852163 -1.52658939 587.35102496 15.6875 588.25 C16.96091248 588.31558105 18.23432495 588.38116211 19.54632568 588.44873047 C35.6094834 589.28768737 51.62756596 590.30877513 67.625 592 C68.40699768 592.08186554 69.18899536 592.16373108 69.99468994 592.24807739 C77.5271399 593.0470156 85.0153798 593.96844905 92.49609375 595.16796875 C94.18387939 595.42610352 94.18387939 595.42610352 95.90576172 595.68945312 C97.91997698 596.00724115 99.92943476 596.35814134 101.93017578 596.75195312 C104.46138579 597.1561876 106.47037327 597.41964122 109 597 C110.9649713 595.44514512 112.25277638 593.83643444 113.70092773 591.79663086 C117.37010452 586.72212006 125.04734511 583.39317455 131 582 C132.55918023 581.80238121 134.12067636 581.62251662 135.68359375 581.45703125 C136.4923999 581.37042236 137.30120605 581.28381348 138.13452148 581.19458008 C138.75012939 581.13036865 139.3657373 581.06615723 140 581 C150.73395967 548.96583911 156.94027962 515.41504055 160.57421875 481.86328125 C161 478 161 478 161.5546875 475.21484375 C161.95009522 472.40359133 161.97390126 470.69023846 161 468 C158.49371215 466.02154597 155.94176596 464.4802692 153.13647461 462.96411133 C145.59060722 458.85668494 142.00636364 453.67954297 138.90844727 445.83349609 C138.55041519 444.9294101 138.19238312 444.0253241 137.82350159 443.09384155 C137.4158683 442.05738998 137.4158683 442.05738998 137 441 C117.7204697 440.97667233 98.44094226 440.95902147 79.16140079 440.94818783 C70.21021618 440.94302459 61.25904032 440.93598137 52.30786133 440.92456055 C44.50889612 440.91461455 36.70993724 440.90814678 28.91096586 440.90591151 C24.77887814 440.90460425 20.64680856 440.90151749 16.51472664 440.89426994 C12.62998474 440.88751106 8.74526854 440.88538277 4.86052132 440.88689232 C3.43060161 440.88661593 2.00068109 440.88461002 0.57076645 440.88079453 C-1.37318051 440.87585941 -3.31714109 440.87760195 -5.26109314 440.87974548 C-6.35157424 440.87882369 -7.44205534 440.8779019 -8.56558132 440.87695217 C-10.94813651 440.72463315 -10.94813651 440.72463315 -12 442 C-13.34015221 442.15582303 -14.68758903 442.25044142 -16.03515625 442.31640625 C-16.84404297 442.35830078 -17.65292969 442.40019531 -18.48632812 442.44335938 C-19.33646484 442.48267578 -20.18660156 442.52199219 -21.0625 442.5625 C-21.91650391 442.60568359 -22.77050781 442.64886719 -23.65039062 442.69335938 C-25.76672037 442.79976702 -27.88333813 442.90041731 -30 443 C-30 442.34 -30 441.68 -30 441 C-37.31479269 440.98658569 -44.6287796 441.03914524 -51.94335938 441.09179688 Z M-146 614 C-146.09796875 614.845625 -146.1959375 615.69125 -146.296875 616.5625 C-147.80329608 627.99052199 -150.8775019 635.8298905 -159.8125 643.375 C-160.534375 643.91125 -161.25625 644.4475 -162 645 C-159.80416305 652.03682402 -157.04293877 658.6316277 -153.9375 665.3125 C-153.45071777 666.36356934 -152.96393555 667.41463867 -152.46240234 668.49755859 C-134.15951726 707.80453301 -110.84332774 743.97133706 -84 778 C-82.91332031 779.37865234 -82.91332031 779.37865234 -81.8046875 780.78515625 C-73.27315298 791.41135068 -63.9211248 801.2422636 -54.1796875 810.7578125 C-52 813 -52 813 -50 816 C-47.01958679 814.59389083 -44.38762355 812.94731093 -41.6875 811.0625 C-37.903048 808.49984956 -34.26130427 806.63198887 -30 805 C-30 802.36 -30 799.72 -30 797 C-29.34 797.33 -28.68 797.66 -28 798 C-26.23132545 798.09683564 -24.45881697 798.12979382 -22.6875 798.125 C-21.74261719 798.12757813 -20.79773438 798.13015625 -19.82421875 798.1328125 C-17.11404264 798.005363 -14.64026415 797.60596226 -12 797 C-12 799.64 -12 802.28 -12 805 C-11.20335937 805.30292969 -10.40671875 805.60585938 -9.5859375 805.91796875 C-3.5582357 808.30118418 1.33625303 810.46580156 6 815 C13.44693717 811.80605403 18.8451425 804.30720683 24.01171875 798.26171875 C25.98960951 796.01181944 28.04042065 793.84246386 30.10424805 791.67163086 C37.13222828 784.23521768 43.32405116 776.30114007 49.42822266 768.09814453 C50.88537758 766.15300793 52.36438354 764.22777641 53.85546875 762.30859375 C79.00571998 729.74916737 99.99115608 693.41843347 116.625 655.8125 C117.00954346 654.96405518 117.39408691 654.11561035 117.7902832 653.24145508 C118.28467896 652.07972778 118.28467896 652.07972778 118.7890625 650.89453125 C119.07475098 650.23300049 119.36043945 649.57146973 119.65478516 648.88989258 C120.13003521 646.28811702 119.43620193 645.17727764 118 643 C116.53134424 641.82507539 115.06235528 640.65055737 113.58984375 639.48046875 C107.70504276 634.00051894 105.18932143 626.61090827 104.453125 618.8046875 C104.32405762 617.45479736 104.32405762 617.45479736 104.19238281 616.07763672 C104.12889648 615.3920166 104.06541016 614.70639648 104 614 C65.45308432 608.09036833 27.01437761 604.50334224 -12 605 C-12 605.66 -12 606.32 -12 607 C-12.99 606.67 -13.98 606.34 -15 606 C-56.29367181 601.8903434 -105.78118921 603.23077225 -146 614 Z M172 630 C170.28800731 632.0113079 170.28800731 632.0113079 168.8125 634.625 C163.83037569 642.15141429 156.75521125 646.80121961 148 649 C146.0847568 649.22821123 144.16464823 649.41807254 142.2421875 649.57421875 C141.25847168 649.65631592 140.27475586 649.73841309 139.26123047 649.82299805 C138.14192139 649.91061401 138.14192139 649.91061401 137 650 C136.72027344 650.68586182 136.44054687 651.37172363 136.15234375 652.07836914 C128.11969533 671.62889266 118.96984453 690.37184616 109 709 C108.51789063 709.90459961 108.03578125 710.80919922 107.5390625 711.74121094 C96.69075589 731.99960168 84.50777973 751.41391377 71 770 C70.55785156 770.6094043 70.11570312 771.21880859 69.66015625 771.84667969 C64.3625982 779.11178127 58.73095761 786.07509288 53 793 C51.88625 794.37671875 51.88625 794.37671875 50.75 795.78125 C46.35252134 801.21702223 41.83119555 806.49292152 37.12109375 811.66015625 C35.19213665 813.78804815 33.30963647 815.94720859 31.4375 818.125 C27.822426 822.28318371 23.94033303 826.15177865 20 830 C23.75452772 831.33971376 26.59998922 830.68912281 30.44921875 829.8828125 C31.40449715 829.68474754 31.40449715 829.68474754 32.3790741 829.48268127 C34.48443479 829.04128857 36.5860552 828.58465596 38.6875 828.125 C39.41463196 827.96794586 40.14176392 827.81089172 40.89093018 827.64907837 C124.99899489 809.41348208 198.74501048 771.15857769 259.8125 710.3125 C260.70839844 709.42127441 261.60429688 708.53004883 262.52734375 707.61181641 C267.5563255 702.5706375 272.40192126 697.43826878 277 692 C276.5978125 691.01 276.5978125 691.01 276.1875 690 C275.795625 689.01 275.40375 688.02 275 687 C274.484375 685.865625 273.96875 684.73125 273.4375 683.5625 C271.1749578 677.63189697 271.29007691 671.27024142 271 665 C261.73333996 660.57647375 252.34529517 656.64800199 242.75 653 C242.04120697 652.72908539 241.33241394 652.45817078 240.60214233 652.17904663 C227.76630412 647.2838748 214.81561191 642.74183186 201.8125 638.3125 C200.9208313 638.00868408 200.0291626 637.70486816 199.11047363 637.3918457 C196.56039325 636.52496218 194.0091159 635.66174481 191.45703125 634.80078125 C190.70422379 634.54613602 189.95141632 634.29149078 189.17579651 634.02912903 C180.77117164 631.06065871 180.77117164 631.06065871 172 630 Z M-311 663 C-311.20993013 665.5191615 -311.3204339 667.9769539 -311.375 670.5 C-311.64006639 677.1229885 -312.65076753 682.18623797 -316 688 C-316.67224347 689.33053032 -317.34044117 690.66313637 -318 692 C-305.45040014 707.35509923 -291.6825148 721.8215471 -276 734 C-274.18405545 735.53760781 -272.37178873 737.07956587 -270.5625 738.625 C-249.35445066 756.26661228 -226.4894987 772.26448402 -202 785 C-201.10812988 785.474375 -200.21625977 785.94875 -199.29736328 786.4375 C-160.55772717 806.98333103 -119.92872401 820.43393317 -77 829 C-75.93571777 829.22059082 -74.87143555 829.44118164 -73.77490234 829.66845703 C-72.80117676 829.86165527 -71.82745117 830.05485352 -70.82421875 830.25390625 C-69.98334717 830.42349854 -69.14247559 830.59309082 -68.27612305 830.76782227 C-65.90055384 831.01014408 -64.25847718 830.72685503 -62 830 C-62.59518433 829.36723145 -62.59518433 829.36723145 -63.20239258 828.72167969 C-67.15959752 824.51268894 -71.10981865 820.29724674 -75.05517578 816.07714844 C-76.71895219 814.30017007 -78.38794803 812.52832458 -80.05859375 810.7578125 C-85.7877139 804.62125129 -91.06772077 798.26685127 -96.1875 791.625 C-98.07209777 789.18082978 -99.98758114 786.76738066 -101.9375 784.375 C-124.84925074 756.26028674 -143.30153237 724.79452767 -159.71289062 692.52734375 C-160.85560545 690.28353042 -162.01107381 688.04698784 -163.171875 685.8125 C-167.77740934 676.86663606 -171.81799804 667.7058443 -175.76416016 658.45117188 C-176.17069824 657.49919922 -176.57723633 656.54722656 -176.99609375 655.56640625 C-177.54027954 654.28165405 -177.54027954 654.28165405 -178.09545898 652.97094727 C-178.84274134 651.04135239 -178.84274134 651.04135239 -180 650 C-182.12286505 649.75183409 -184.24846929 649.52699822 -186.375 649.3125 C-196.0158332 647.97731332 -203.82205154 644.48657129 -209.859375 636.6796875 C-210.87946122 635.17750574 -211.82066469 633.6224557 -212.75 632.0625 C-213.1625 631.381875 -213.575 630.70125 -214 630 C-244.0155141 630 -284.36326154 649.68163077 -311 663 Z " fill="#FDFDFD" transform="translate(533,78)"/>
<path d="M0 0 C5.94 0 11.88 0 18 0 C18 0.99 18 1.98 18 3 C16.700625 2.979375 15.40125 2.95875 14.0625 2.9375 C9.30617675 2.92995028 4.71611047 3.40112883 0 4 C0 2.68 0 1.36 0 0 Z " fill="#FBFBFB" transform="translate(503,266)"/>
<path d="M0 0 C1.32 0 2.64 0 4 0 C3.67 0.66 3.34 1.32 3 2 C2.01 1.34 1.02 0.68 0 0 Z " fill="#FFFFFF" transform="translate(517,792)"/>
<path d="M0 0 C0.66 0.66 1.32 1.32 2 2 C1.34 2 0.68 2 0 2 C0 1.34 0 0.68 0 0 Z " fill="#FFFFFF" transform="translate(503,806)"/>
<path d="" fill="#FFFFFF" transform="translate(0,0)"/>
<path d="" fill="#FFFFFF" transform="translate(0,0)"/>
</svg>
